# xmcd
#
# Track frame offsets: 
#        150
#        18101
#        32493
#        57602
#        80337
#        99115
#        117438
#        142944
#        171975
#        188001
#        210407
#        227862
#        248949
#
# Disc length: 3399 seconds
#
# Revision: 0
# Processed by: cddbd v1.5.2PL0 Copyright (c) Steve Scherf et al.
# Submitted via: ExactAudioCopy v0.99pb5
#
DISCID=a20d450d
DTITLE=Anna Marucha and The Taxi Band - Love and Soul
DYEAR=2014
DGENRE=Soul
TTITLE0=01.Beauty Quiert
TTITLE1=02.Free For Love
TTITLE2=03.New Day
TTITLE3=04.Passion Symphony
TTITLE4=05.Love Sensation
TTITLE5=06.Brighter
TTITLE6=07.Magic Powder
TTITLE7=08.Dla Nas
TTITLE8=09.Wonderland
TTITLE9=10.Midnight Friend
TTITLE10=11.Hashee Blue
TTITLE11=12.Wiem,¯e Jestes
TTITLE12=13.Outro
EXTD=
EXTT0=
EXTT1=
EXTT2=
EXTT3=
EXTT4=
EXTT5=
EXTT6=
EXTT7=
EXTT8=
EXTT9=
EXTT10=
EXTT11=
EXTT12=
PLAYORDER=
